<svg width="31" height="31" viewBox="0 0 31 31" fill="none" xmlns="http://www.w3.org/2000/svg">
<path d="M31 0H0V31H31V0Z" fill="#F7DF1E"/>
<path d="M20.8239 24.2189C21.4483 25.2385 22.2607 25.9879 23.6975 25.9879C24.9046 25.9879 25.6756 25.3846 25.6756 24.551C25.6756 23.5521 24.8834 23.1984 23.5548 22.6172L22.8266 22.3048C20.7245 21.4092 19.328 20.2873 19.328 17.9156C19.328 15.7308 20.9927 14.0676 23.5942 14.0676C25.4463 14.0676 26.7779 14.7122 27.7374 16.4L25.469 17.8565C24.9695 16.961 24.4307 16.6081 23.5942 16.6081C22.741 16.6081 22.2002 17.1494 22.2002 17.8565C22.2002 18.7304 22.7415 19.0842 23.9913 19.6255L24.7196 19.9375C27.1946 20.9988 28.5921 22.0809 28.5921 24.5136C28.5921 27.1363 26.5318 28.5732 23.765 28.5732C21.0596 28.5732 19.3118 27.284 18.4566 25.5942L20.8239 24.2189ZM10.5334 24.4713C10.991 25.2832 11.4073 25.9697 12.4081 25.9697C13.3652 25.9697 13.969 25.5952 13.969 24.1392V14.2339H16.882V24.1785C16.882 27.1949 15.1135 28.5678 12.5321 28.5678C10.1997 28.5678 8.84903 27.3607 8.16211 25.9069L10.5334 24.4713Z" fill="black"/>
</svg>
