<svg width="31" height="31" viewBox="0 0 31 31" fill="none" xmlns="http://www.w3.org/2000/svg">
<path d="M29.0669 12.6906C29.4615 11.625 29.5602 10.5594 29.4615 9.49375C29.3629 8.42813 28.9682 7.3625 28.4749 6.39375C27.5868 4.94062 26.3042 3.77813 24.8241 3.1C23.2455 2.42188 21.5681 2.22813 19.8907 2.61563C19.1014 1.84063 18.2134 1.1625 17.2267 0.678125C16.24 0.19375 15.056 0 13.9706 0C12.2933 0 10.6159 0.484375 9.23457 1.45312C7.85322 2.42188 6.86654 3.77813 6.3732 5.32812C5.18918 5.61875 4.2025 6.10313 3.21582 6.68438C2.3278 7.3625 1.63712 8.23438 1.04512 9.10625C0.157102 10.5594 -0.138902 12.2063 0.0584343 13.8531C0.255771 15.5 0.946448 17.05 2.0318 18.3094C1.63712 19.375 1.53846 20.4406 1.63712 21.5063C1.73579 22.5719 2.13047 23.6375 2.62381 24.6062C3.51182 26.0594 4.79451 27.2219 6.27453 27.9C7.85322 28.5781 9.53058 28.7719 11.2079 28.3844C11.9973 29.1594 12.8853 29.8375 13.872 30.3219C14.8587 30.8062 16.0427 31 17.128 31C18.8054 31 20.4827 30.5156 21.8641 29.5469C23.2455 28.5781 24.2321 27.2219 24.7255 25.6719C25.8108 25.4781 26.8962 24.9937 27.7842 24.3156C28.6722 23.6375 29.4615 22.8625 29.9549 21.8938C30.8429 20.4406 31.1389 18.7938 30.9416 17.1469C30.7442 15.5 30.1522 13.95 29.0669 12.6906ZM17.2267 28.9656C15.648 28.9656 14.464 28.4813 13.3786 27.6094C13.3786 27.6094 13.4773 27.5125 13.576 27.5125L19.8907 23.9281C20.0881 23.8313 20.1867 23.7344 20.2854 23.5406C20.3841 23.3469 20.3841 23.25 20.3841 23.0562V14.3375L23.0481 15.8875V23.0562C23.1468 26.4469 20.3841 28.9656 17.2267 28.9656ZM4.4985 23.6375C3.80782 22.475 3.51182 21.1187 3.80782 19.7625C3.80782 19.7625 3.90649 19.8594 4.00516 19.8594L10.3199 23.4438C10.5173 23.5406 10.6159 23.5406 10.8133 23.5406C11.0106 23.5406 11.2079 23.5406 11.3066 23.4438L19.0027 19.0844V22.0875L12.5893 25.7688C11.2079 26.5438 9.62924 26.7375 8.14922 26.35C6.57053 25.9625 5.28785 24.9937 4.4985 23.6375ZM2.82114 10.1719C3.51182 9.00937 4.59717 8.1375 5.87986 7.65313V7.84688V15.0156C5.87986 15.2094 5.87986 15.4031 5.97852 15.5C6.07719 15.6938 6.17586 15.7906 6.3732 15.8875L14.0693 20.2469L11.4053 21.7969L5.09051 18.2125C3.70916 17.4375 2.72247 16.1781 2.3278 14.725C1.93313 13.2719 2.0318 11.5281 2.82114 10.1719ZM24.6268 15.1125L16.9307 10.7531L19.5947 9.20312L25.9095 12.7875C26.8962 13.3687 27.6855 14.1438 28.1789 15.1125C28.6722 16.0813 28.9682 17.1469 28.8695 18.3094C28.7709 19.375 28.3762 20.4406 27.6855 21.3125C26.9948 22.1844 26.1068 22.8625 25.0215 23.25V15.8875C25.0215 15.6937 25.0215 15.5 24.9228 15.4031C24.9228 15.4031 24.8241 15.2094 24.6268 15.1125ZM27.2908 11.2375C27.2908 11.2375 27.1922 11.1406 27.0935 11.1406L20.7787 7.55625C20.5814 7.45938 20.4827 7.45937 20.2854 7.45937C20.0881 7.45937 19.8907 7.45938 19.7921 7.55625L12.0959 11.9156V8.9125L18.5094 5.23125C19.4961 4.65 20.5814 4.45625 21.7654 4.45625C22.8508 4.45625 23.9361 4.84375 24.9228 5.52187C25.8108 6.2 26.6002 7.07188 26.9948 8.04063C27.3895 9.00938 27.4882 10.1719 27.2908 11.2375ZM10.7146 16.6625L8.05055 15.1125V7.84688C8.05055 6.78125 8.34656 5.61875 8.93857 4.74688C9.53058 3.77813 10.4186 3.1 11.4053 2.61563C12.392 2.13125 13.576 1.9375 14.6613 2.13125C15.7467 2.22813 16.832 2.7125 17.72 3.39062C17.72 3.39062 17.6214 3.4875 17.5227 3.4875L11.2079 7.07188C11.0106 7.16875 10.9119 7.26562 10.8133 7.45937C10.7146 7.65312 10.7146 7.75 10.7146 7.94375V16.6625ZM12.0959 13.5625L15.5493 11.625L19.0027 13.5625V17.4375L15.5493 19.375L12.0959 17.4375V13.5625Z" fill="white"/>
</svg>
