<svg width="30" height="31" viewBox="0 0 30 31" fill="none" xmlns="http://www.w3.org/2000/svg">
<path d="M29.9206 18.5697C29.7403 18.0223 29.2679 17.6411 28.6571 17.5496C28.3691 17.5065 28.0392 17.5249 27.6489 17.6055C26.9685 17.7462 26.4637 17.7998 26.0953 17.8102C27.4858 15.4572 28.6165 12.7739 29.2674 10.2481C30.3199 6.16395 29.7574 4.30335 29.1002 3.46177C27.3608 1.23418 24.8232 0.0375028 21.7617 0.000886524C20.1285 -0.0191288 18.6948 0.30406 17.9469 0.536472C17.2505 0.413319 16.5018 0.344561 15.7161 0.331845C14.2434 0.308298 12.9422 0.630073 11.8304 1.2914C11.2149 1.08277 10.2269 0.788665 9.08608 0.600992C6.40285 0.159478 4.24025 0.503506 2.65841 1.62354C0.742962 2.97963 -0.144986 5.33579 0.0192354 8.62654C0.0713916 9.67134 0.654508 12.8502 1.57265 15.865C2.10032 17.5979 2.66299 19.0369 3.24505 20.1424C4.07051 21.7101 4.95375 22.6333 5.94531 22.9648C6.50106 23.1504 7.51082 23.2803 8.57286 22.3938C8.70747 22.5572 8.88708 22.7196 9.12543 22.8704C9.42815 23.0617 9.79829 23.2181 10.168 23.3107C11.5002 23.6445 12.7481 23.561 13.8127 23.0931C13.8193 23.2829 13.8243 23.4642 13.8285 23.6208C13.8356 23.8748 13.8426 24.1238 13.8519 24.3567C13.915 25.9313 14.0219 27.1557 14.3386 28.0123C14.356 28.0594 14.3793 28.1312 14.404 28.2074C14.562 28.6922 14.8262 29.5039 15.4984 30.1396C16.1944 30.7981 17.0363 31 17.8073 31C18.194 31 18.563 30.9491 18.8866 30.8797C20.0402 30.6318 21.3503 30.2544 22.298 28.9018C23.1941 27.6232 23.6297 25.6974 23.7085 22.6629C23.7187 22.5771 23.7281 22.4951 23.7372 22.4171L23.756 22.2567L23.967 22.2753L24.0214 22.279C25.1964 22.3327 26.633 22.0829 27.5153 21.6722C28.2125 21.3479 30.4466 20.1657 29.9206 18.5697Z" fill="black"/>
<path d="M27.9113 18.8801C24.4178 19.6024 24.1776 18.4169 24.1776 18.4169C27.8661 12.9312 29.4081 5.96784 28.0775 4.26359C24.4473 -0.385264 18.1633 1.81336 18.0584 1.87035L18.0247 1.87647C17.3344 1.73283 16.562 1.64735 15.6938 1.63311C14.1132 1.6072 12.914 2.04848 12.0041 2.74007C12.0041 2.74007 0.79405 -1.88865 1.31549 8.56147C1.42639 10.7846 4.49468 25.3829 8.15431 20.9736C9.49193 19.3612 10.7844 17.9979 10.7844 17.9979C11.4263 18.4253 12.1948 18.6433 13.0004 18.565L13.063 18.5118C13.0435 18.7119 13.0524 18.9077 13.088 19.1396C12.1452 20.1953 12.4223 20.3806 10.5376 20.7695C8.63053 21.1635 9.75083 21.8647 10.4823 22.0482C11.3691 22.2703 13.4206 22.5851 14.8067 20.6402L14.7515 20.8622C15.1208 21.1588 15.3802 22.7911 15.3367 24.2709C15.2933 25.7506 15.2642 26.7666 15.5552 27.5601C15.8464 28.3537 16.1365 30.1392 18.6141 29.6071C20.6843 29.1624 21.7571 28.0101 21.9064 26.0879C22.0123 24.7215 22.252 24.9235 22.267 23.7018L22.4593 23.1234C22.681 21.2711 22.4946 20.6735 23.7699 20.9514L24.0801 20.9787C25.0186 21.0215 26.2474 20.8273 26.9685 20.4914C28.5212 19.7692 29.4422 18.5632 27.9111 18.8801H27.9113Z" fill="#336791"/>
<path d="M12.6603 9.55568C12.3455 9.51176 12.0604 9.55238 11.9161 9.66188C11.8351 9.72345 11.8099 9.7948 11.8031 9.8439C11.785 9.97399 11.876 10.1179 11.9319 10.192C12.09 10.4021 12.3209 10.5464 12.5495 10.5782C12.5826 10.5829 12.6157 10.585 12.6484 10.585C13.0296 10.585 13.3763 10.2875 13.4068 10.0679C13.445 9.79292 13.0467 9.6096 12.6603 9.5558V9.55568ZM23.0897 9.56439C23.0596 9.34881 22.6769 9.28736 22.3137 9.33798C21.9509 9.38861 21.5992 9.55273 21.6286 9.76878C21.6521 9.93679 21.9548 10.2236 22.3131 10.2236C22.3434 10.2236 22.3739 10.2216 22.4047 10.2172C22.6439 10.184 22.8194 10.0318 22.9028 9.94409C23.0296 9.81034 23.1032 9.66129 23.0897 9.56439Z" fill="white"/>
<path d="M29.0744 18.798C28.9412 18.3943 28.5124 18.2644 27.8001 18.4118C25.6851 18.8493 24.9276 18.5463 24.6789 18.3627C26.3229 15.8526 27.6754 12.8182 28.405 9.98724C28.7505 8.64621 28.9414 7.40079 28.9571 6.38565C28.9743 5.27151 28.785 4.45276 28.3945 3.95261C26.8202 1.93636 24.5096 0.854825 21.7126 0.825155C19.7898 0.803491 18.1652 1.29669 17.8502 1.43539C17.187 1.27008 16.464 1.16859 15.6768 1.15564C14.2333 1.13221 12.9856 1.4786 11.9526 2.18467C11.5038 2.01725 10.3442 1.61823 8.92597 1.38923C6.47415 0.993637 4.52581 1.2934 3.13544 2.28062C1.47642 3.4587 0.710525 5.56455 0.858889 8.53954C0.908813 9.54043 1.47783 12.6195 2.37577 15.5682C3.55774 19.4493 4.84262 21.6464 6.19446 22.0984C6.35269 22.1513 6.53512 22.1882 6.73634 22.1882C7.22948 22.1882 7.83409 21.9655 8.46314 21.2075C9.2304 20.285 10.0241 19.3848 10.8432 18.5082C11.3746 18.7941 11.9584 18.9538 12.5555 18.9698C12.5567 18.9854 12.5582 19.0011 12.5596 19.0166C12.4569 19.1395 12.3562 19.2641 12.2577 19.3904C11.844 19.9169 11.7579 20.0265 10.4262 20.3013C10.0473 20.3797 9.04121 20.5875 9.02641 21.2944C9.01043 22.0667 10.2158 22.3911 10.3531 22.4255C10.8317 22.5456 11.2927 22.6048 11.7324 22.6048C12.8017 22.6048 13.7428 22.2525 14.4948 21.5709C14.4717 24.3243 14.5862 27.0375 14.9161 27.8641C15.1863 28.5409 15.8462 30.1947 17.9308 30.1946C18.2367 30.1946 18.5734 30.1589 18.9437 30.0794C21.1194 29.6119 22.0642 28.6481 22.4296 26.5233C22.6252 25.3878 22.9608 22.6761 23.1187 21.2216C23.4519 21.3258 23.8807 21.3735 24.3444 21.3734C25.3114 21.3734 26.4272 21.1675 27.127 20.8419C27.9131 20.476 29.3317 19.5781 29.0744 18.798ZM23.8933 8.96928C23.8861 9.39867 23.8272 9.7885 23.7647 10.1954C23.6974 10.633 23.6278 11.0855 23.6103 11.6347C23.5931 12.1693 23.6597 12.725 23.724 13.2625C23.8542 14.348 23.9878 15.4656 23.4708 16.5683C23.3849 16.4158 23.3084 16.2581 23.2417 16.0963C23.1775 15.9402 23.0379 15.6894 22.8447 15.3423C22.093 13.9911 20.3327 10.8271 21.2338 9.53595C21.5022 9.15166 22.1834 8.75653 23.8933 8.96928ZM21.8207 1.69465C24.3268 1.7501 26.3092 2.68976 27.7127 4.48737C28.7892 5.8662 27.6038 12.1401 24.1722 17.5526C24.1377 17.5086 24.103 17.4647 24.0681 17.4211L24.0246 17.3667C24.9114 15.8988 24.738 14.4465 24.5837 13.159C24.5202 12.6306 24.4603 12.1315 24.4756 11.6626C24.4913 11.1658 24.5569 10.7396 24.6203 10.3275C24.6982 9.8197 24.7775 9.29424 24.7557 8.67482C24.772 8.60983 24.7786 8.53306 24.77 8.44194C24.7142 7.84795 24.0376 6.07024 22.6585 4.46124C21.9041 3.58115 20.804 2.59628 19.3019 1.932C19.948 1.79778 20.8315 1.67263 21.8207 1.69465ZM7.79744 20.6527C7.10438 21.4879 6.62581 21.3278 6.4684 21.2753C5.44289 20.9325 4.25293 18.76 3.20381 15.315C2.29601 12.3341 1.76552 9.33662 1.72346 8.4961C1.59096 5.83782 2.23387 3.98522 3.63445 2.98964C5.91382 1.36957 9.66133 2.33926 11.1672 2.83105C11.1456 2.85247 11.123 2.87249 11.1016 2.89427C8.63054 5.39548 8.68915 9.66888 8.69526 9.93014C8.69503 10.0309 8.70348 10.1736 8.715 10.3699C8.75752 11.0887 8.83669 12.4264 8.62525 13.9413C8.42884 15.3491 8.86183 16.727 9.81298 17.7218C9.91059 17.8237 10.0132 17.9206 10.1204 18.0123C9.69704 18.4668 8.7769 19.4718 7.79744 20.6527ZM10.438 17.1214C9.67143 16.3196 9.32325 15.2044 9.48266 14.0614C9.70585 12.4611 9.6235 11.0674 9.57922 10.3186C9.57299 10.2138 9.56747 10.1219 9.5643 10.0495C9.92528 9.72869 11.5982 8.83035 12.7912 9.10433C13.3355 9.22925 13.6673 9.60082 13.8052 10.2399C14.5189 13.5487 13.8996 14.9277 13.402 16.036C13.2995 16.2643 13.2026 16.4801 13.1199 16.7033L13.0557 16.8759C12.8934 17.3123 12.7423 17.718 12.6487 18.1032C11.8337 18.1009 11.0409 17.7519 10.438 17.1213V17.1214ZM10.5631 21.5837C10.3251 21.5241 10.1111 21.4206 9.98554 21.3348C10.0904 21.2853 10.2771 21.218 10.6008 21.1511C12.1675 20.8279 12.4095 20.5997 12.9379 19.9273C13.059 19.7731 13.1963 19.5984 13.3865 19.3855L13.3867 19.3853C13.67 19.0674 13.7995 19.1213 14.0345 19.219C14.2249 19.2979 14.4104 19.5371 14.4856 19.8004C14.5211 19.9247 14.5611 20.1607 14.4303 20.3444C13.3266 21.8933 11.7182 21.8734 10.5631 21.5837ZM18.7624 29.2309C16.8457 29.6425 16.1671 28.6624 15.7199 27.5419C15.4313 26.8185 15.2894 23.5565 15.3901 19.9541C15.3914 19.9061 15.3845 19.8599 15.3714 19.8163C15.3596 19.7303 15.3417 19.6452 15.3178 19.5618C15.1682 19.0376 14.8034 18.5991 14.3659 18.4174C14.192 18.3452 13.873 18.2127 13.4895 18.311C13.5713 17.9734 13.7131 17.592 13.8668 17.1791L13.9313 17.0054C14.0039 16.8096 14.0951 16.6068 14.1914 16.392C14.7122 15.2326 15.4253 13.6444 14.6513 10.0566C14.3614 8.71273 13.3932 8.05646 11.9255 8.20893C11.0457 8.30018 10.2407 8.65598 9.83918 8.86002C9.75284 8.90382 9.6739 8.94621 9.60013 8.98741C9.71219 7.63343 10.1356 5.10302 11.7193 3.50203C12.7165 2.4942 14.0445 1.99641 15.6625 2.02325C18.8506 2.07553 20.895 3.71537 22.0488 5.08195C23.0431 6.25944 23.5814 7.44564 23.7963 8.08543C22.1805 7.92071 21.0816 8.24037 20.5245 9.03863C19.3126 10.775 21.1875 14.1451 22.0886 15.7648C22.2539 16.0617 22.3965 16.3182 22.4414 16.4272C22.7348 17.14 23.1147 17.6159 23.3921 17.9632C23.4771 18.0697 23.5596 18.1729 23.6223 18.2631C23.1329 18.4045 22.2539 18.7312 22.334 20.3644C22.2694 21.1838 21.81 25.0204 21.5766 26.3759C21.2685 28.1667 20.611 28.8337 18.7624 29.2311V29.2309ZM26.7625 20.055C26.2621 20.2877 25.4246 20.4623 24.6291 20.4999C23.7505 20.5411 23.3031 20.4012 23.1979 20.3152C23.1486 19.2974 23.5265 19.1911 23.9264 19.0786C23.9893 19.0609 24.0506 19.0436 24.1098 19.0229C24.1466 19.0529 24.1869 19.0827 24.231 19.1119C24.9373 19.5791 26.1969 19.6295 27.9753 19.2615L27.9947 19.2576C27.7549 19.4824 27.3444 19.784 26.7625 20.055Z" fill="white"/>
</svg>
