<svg width="31" height="31" viewBox="0 0 31 31" fill="none" xmlns="http://www.w3.org/2000/svg">
<path d="M27.7676 6.02627C25.8937 3.59978 23.3424 1.78349 20.4363 0.80709C17.5301 -0.169305 14.3997 -0.261939 11.4409 0.540904C8.48213 1.34375 5.82788 3.006 3.81385 5.31745C1.79982 7.62889 0.516488 10.4857 0.126154 13.5265C-0.26418 16.5674 0.256019 19.6557 1.62096 22.4009C2.9859 25.1461 5.13427 27.4248 7.79437 28.9489C10.4545 30.4731 13.5068 31.1741 16.5653 30.9633C19.6238 30.7526 22.5512 29.6396 24.9771 27.765C31.7486 22.5318 32.9983 12.8003 27.7671 6.02627H27.7676Z" fill="#FF6C37"/>
<path d="M20.7272 9.87603L14.1916 16.4635L12.3447 14.5648C18.7771 8.13228 19.4228 8.71353 20.7277 9.87603H20.7272Z" fill="white"/>
<path d="M14.1926 16.6439C14.1347 16.6424 14.0794 16.6195 14.0376 16.5794L12.1776 14.7194C12.1357 14.6761 12.1123 14.6182 12.1123 14.5579C12.1123 14.4976 12.1357 14.4397 12.1776 14.3964C18.5195 8.05444 19.385 8.35136 20.8832 9.70761C20.9083 9.72768 20.9283 9.75332 20.9418 9.7825C20.9552 9.81167 20.9617 9.84358 20.9607 9.87569C20.9704 9.93866 20.9462 10.0031 20.8963 10.0438L14.3606 16.5799C14.3148 16.6219 14.2547 16.645 14.1926 16.6443V16.6439ZM12.6683 14.5644L14.1926 16.0888L20.3925 9.88877C20.1784 9.62049 19.873 9.44055 19.5346 9.38336C19.1962 9.32616 18.8485 9.39574 18.5582 9.57877C17.4345 10.0825 15.6263 11.6194 12.6683 14.5644Z" fill="#FF6C37"/>
<path d="M16.0647 18.2847L14.2822 16.4635L20.8179 10.0049C22.5747 11.7229 19.9654 14.5904 16.0647 18.2843V18.2847Z" fill="white"/>
<path d="M16.0651 18.5173C16.0079 18.5128 15.9536 18.4902 15.9101 18.4529L14.0888 16.6704C14.0615 16.6042 14.0615 16.5298 14.0888 16.4636C14.0695 16.4092 14.0695 16.3498 14.0888 16.2955L20.6245 9.75984C20.6699 9.71713 20.7299 9.69336 20.7923 9.69336C20.8547 9.69336 20.9147 9.71713 20.9601 9.75984C21.1718 9.95465 21.339 10.1927 21.4504 10.458C21.5618 10.7232 21.6148 11.0092 21.6058 11.2968C21.6058 13.0405 19.6165 15.2362 16.2327 18.4398C16.1875 18.4846 16.128 18.512 16.0646 18.5173H16.0651ZM14.6183 16.4636L16.0777 17.9225C18.6608 15.4813 21.1282 12.9625 21.1408 11.2575C21.1549 10.8961 21.0354 10.5421 20.8051 10.2631L14.6183 16.4636Z" fill="#FF6C37"/>
<path d="M12.3968 14.6036L13.6886 15.8954C13.6968 15.9026 13.7034 15.9116 13.7079 15.9216C13.7125 15.9316 13.7148 15.9425 13.7148 15.9535C13.7148 15.9645 13.7125 15.9754 13.7079 15.9854C13.7034 15.9954 13.6968 16.0044 13.6886 16.0116L10.963 16.5929C10.908 16.6047 10.8506 16.5983 10.7996 16.5746C10.7486 16.5508 10.7067 16.511 10.6804 16.4613C10.654 16.4115 10.6447 16.3545 10.6538 16.299C10.6628 16.2434 10.6898 16.1924 10.7305 16.1535L12.3193 14.5779C12.3193 14.5779 12.3711 14.5779 12.3968 14.6036Z" fill="white"/>
<path d="M10.8985 16.8511C10.8124 16.85 10.728 16.8269 10.6534 16.7839C10.5787 16.7409 10.5164 16.6795 10.4723 16.6056C10.4226 16.5119 10.4046 16.4046 10.4209 16.2999C10.4372 16.1951 10.487 16.0984 10.5628 16.0243L12.1385 14.4356C12.1953 14.3848 12.2688 14.3567 12.3451 14.3567C12.4213 14.3567 12.4948 14.3848 12.5516 14.4356L13.8435 15.7274C13.92 15.8 13.95 15.91 13.921 16.0117C13.8919 16.1134 13.8066 16.1943 13.7015 16.2185L10.976 16.7998L10.8985 16.8511ZM12.3453 14.888L10.8859 16.3474L13.3015 15.8306L12.3453 14.888Z" fill="#FF6C37"/>
<path d="M24.2025 6.24623C23.2676 5.34433 21.799 5.30655 20.8186 6.15759C19.8382 7.00864 19.6706 8.46951 20.434 9.5206C21.1974 10.5717 22.6365 10.8662 23.7505 10.1987L21.9937 8.4419L24.2025 6.24623Z" fill="white"/>
<path d="M22.4591 10.7925C21.922 10.7857 21.3988 10.6209 20.9547 10.3187C20.5106 10.0166 20.1653 9.5904 19.9617 9.09334C19.7582 8.59666 19.7049 8.05123 19.8082 7.52453C19.9115 6.99782 20.1669 6.51296 20.5429 6.12994C21.0601 5.6223 21.7558 5.33789 22.4804 5.33789C23.2051 5.33789 23.9008 5.6223 24.4179 6.12994C24.4673 6.17159 24.4954 6.23311 24.4954 6.29801C24.4953 6.32995 24.4883 6.36148 24.475 6.39048C24.4616 6.41948 24.4421 6.44527 24.4179 6.46609L22.3254 8.44234L23.9142 10.0054C23.9399 10.03 23.9592 10.0605 23.9705 10.0943C23.9817 10.1281 23.9845 10.1641 23.9786 10.1992C23.9748 10.233 23.9635 10.2656 23.9457 10.2947C23.9279 10.3237 23.9039 10.3485 23.8754 10.3673C23.4486 10.634 22.9579 10.7813 22.4548 10.7935L22.4591 10.7925ZM22.4591 5.7807C21.5388 5.78554 20.7154 6.33919 20.37 7.18539C20.0246 8.03159 20.2126 9.00567 20.8578 9.65571C21.1787 9.97849 21.5896 10.1968 22.0367 10.2821C22.4838 10.3674 22.9462 10.3157 23.3634 10.1338L21.8391 8.60945C21.8149 8.59008 21.7953 8.5655 21.7819 8.53753C21.7684 8.50957 21.7615 8.47894 21.7615 8.44792C21.7615 8.41689 21.7684 8.38626 21.7819 8.35829C21.7953 8.33033 21.8149 8.30575 21.8391 8.28638L23.8541 6.25829C23.4536 5.95131 22.9638 5.78345 22.4591 5.78022V5.7807Z" fill="#FF6C37"/>
<path d="M24.2409 6.28491L22.0322 8.48058L23.789 10.2374C23.9658 10.1359 24.1305 10.0145 24.2797 9.87557C24.7401 9.38889 24.9935 8.74235 24.9862 8.07241C24.979 7.40247 24.7118 6.76155 24.2409 6.28491Z" fill="white"/>
<path d="M23.7502 10.4311C23.7212 10.4327 23.6922 10.4277 23.6654 10.4166C23.6386 10.4054 23.6146 10.3884 23.5952 10.3667L21.8384 8.60986C21.8142 8.59049 21.7946 8.56591 21.7812 8.53794C21.7677 8.50998 21.7607 8.47935 21.7607 8.44832C21.7607 8.4173 21.7677 8.38667 21.7812 8.3587C21.7946 8.33074 21.8142 8.30616 21.8384 8.28679L24.0341 6.12986C24.0553 6.09789 24.0841 6.07166 24.1179 6.05352C24.1517 6.03537 24.1894 6.02588 24.2278 6.02588C24.2662 6.02588 24.3039 6.03537 24.3378 6.05352C24.3716 6.07166 24.4003 6.09789 24.4216 6.12986C24.6793 6.38242 24.8841 6.68387 25.0239 7.01656C25.1637 7.34925 25.2357 7.70649 25.2357 8.06736C25.2357 8.42823 25.1637 8.78548 25.0239 9.11817C24.8841 9.45086 24.6793 9.75231 24.4216 10.0049C24.2695 10.1661 24.0955 10.3052 23.9047 10.418C23.8567 10.4423 23.8012 10.4469 23.7497 10.4311H23.7502ZM22.3296 8.44227L23.789 9.90169C23.8894 9.83133 23.9844 9.75362 24.0733 9.66919C24.5023 9.24134 24.744 8.66068 24.7451 8.05477C24.7461 7.51253 24.5485 6.98871 24.1895 6.58227L22.3296 8.44227Z" fill="#FF6C37"/>
<path d="M20.999 10.1473C20.824 9.98305 20.5931 9.8916 20.3531 9.8916C20.1131 9.8916 19.8821 9.98305 19.7072 10.1473L13.8564 15.985L14.8252 16.9669L21.0121 11.5419C21.1064 11.4514 21.1813 11.3426 21.232 11.2222C21.2827 11.1018 21.3082 10.9722 21.307 10.8415C21.3058 10.7108 21.2778 10.5818 21.2249 10.4623C21.1719 10.3429 21.095 10.2355 20.999 10.1469V10.1473Z" fill="white"/>
<path d="M14.7734 17.1998C14.7155 17.1983 14.6602 17.1754 14.6184 17.1354L13.6366 16.1535C13.5947 16.1102 13.5713 16.0523 13.5713 15.992C13.5713 15.9317 13.5947 15.8738 13.6366 15.8304L19.4878 10.0049C19.6563 9.83654 19.8715 9.72273 20.1055 9.67819C20.3395 9.63365 20.5815 9.66045 20.8001 9.7551C21.0187 9.84975 21.2038 10.0079 21.3314 10.209C21.459 10.4101 21.5233 10.645 21.5158 10.883C21.5091 11.0446 21.4702 11.2033 21.4015 11.3497C21.3327 11.496 21.2354 11.6272 21.1153 11.7355L14.9284 17.1605C14.8834 17.1924 14.8281 17.2062 14.7734 17.1993V17.1998ZM14.089 15.985L14.7346 16.6437L20.8053 11.3606C20.9554 11.2299 21.045 11.0429 21.0508 10.8438C21.0566 10.6447 20.9782 10.45 20.8314 10.3144C20.6959 10.1794 20.5124 10.1036 20.3211 10.1036C20.1299 10.1036 19.9464 10.1794 19.8108 10.3144L14.089 15.985Z" fill="#FF6C37"/>
<path d="M9.32238 22.6375C9.30586 22.66 9.29695 22.6871 9.29695 22.715C9.29695 22.7429 9.30586 22.7701 9.32238 22.7925L9.58055 23.9163C9.5909 23.9824 9.58109 24.0501 9.55241 24.1106C9.52372 24.1711 9.4775 24.2215 9.41974 24.2553C9.3622 24.289 9.29545 24.3035 9.22912 24.2968C9.16279 24.2901 9.1003 24.2625 9.05065 24.218L7.28125 22.513L12.7968 16.9539H14.7086L16.0004 18.2457C13.9853 20.0076 11.7384 21.4852 9.32238 22.6375Z" fill="white"/>
<path d="M9.20687 24.5362C9.06059 24.5333 8.91625 24.4732 8.81938 24.3681L7.12747 22.6762C7.10324 22.6568 7.08367 22.6323 7.07023 22.6043C7.05679 22.5763 7.0498 22.5457 7.0498 22.5147C7.0498 22.4836 7.05679 22.453 7.07023 22.4251C7.08367 22.3971 7.10324 22.3725 7.12747 22.3531L12.6813 16.7862C12.7124 16.7532 12.753 16.7306 12.7975 16.7218H14.7219C14.7721 16.7041 14.8268 16.7041 14.8769 16.7218L16.1687 18.0136C16.1933 18.0363 16.212 18.0645 16.2232 18.096C16.2344 18.1275 16.2378 18.1612 16.2332 18.1943C16.2341 18.2264 16.2275 18.2583 16.2141 18.2874C16.2007 18.3166 16.1807 18.3422 16.1557 18.3624L16.0525 18.4529C14.0292 20.1397 11.8033 21.5672 9.42629 22.7024L9.67187 23.7486C9.69085 23.8293 9.69158 23.9133 9.674 23.9943C9.65641 24.0753 9.62096 24.1514 9.57023 24.217C9.5195 24.2826 9.45478 24.336 9.38077 24.3734C9.30676 24.4107 9.22534 24.4311 9.14245 24.433L9.20687 24.5362ZM7.63121 22.5081L9.15504 24.0451C9.16924 24.0577 9.1876 24.0647 9.20663 24.0647C9.22566 24.0647 9.24402 24.0577 9.25822 24.0451C9.26772 24.0319 9.27283 24.016 9.27283 23.9998C9.27283 23.9835 9.26772 23.9677 9.25822 23.9545L9.00005 22.8307C8.9797 22.7501 8.98788 22.6649 9.02319 22.5896C9.0585 22.5143 9.11878 22.4535 9.19379 22.4176C11.5069 21.2976 13.6754 19.9009 15.6519 18.2582L14.5926 17.1989H12.8619L7.63121 22.5081Z" fill="#FF6C37"/>
<path d="M5.95178 23.8387L7.2436 22.5469L9.23291 24.5362L6.06852 24.3168C6.01419 24.3125 5.96259 24.2912 5.92109 24.2559C5.87959 24.2206 5.8503 24.173 5.83742 24.1201C5.82453 24.0671 5.82869 24.0115 5.84932 23.961C5.86994 23.9106 5.90597 23.8679 5.95227 23.8392L5.95178 23.8387Z" fill="white"/>
<path d="M9.27048 24.73L6.11869 24.5106C5.93172 24.4932 5.77091 24.3653 5.70504 24.1943C5.63916 24.0233 5.67936 23.8204 5.80869 23.6838L7.1005 22.3919C7.14385 22.3501 7.20177 22.3267 7.26204 22.3267C7.32231 22.3267 7.38023 22.3501 7.42358 22.3919L9.3998 24.3682C9.42716 24.4057 9.44191 24.4509 9.44191 24.4973C9.44191 24.5437 9.42716 24.5889 9.3998 24.6264C9.36993 24.6747 9.32422 24.7111 9.27048 24.7295V24.73ZM6.11869 24.0069L8.70183 24.1749L7.28117 22.8444L6.11869 24.0069Z" fill="#FF6C37"/>
<path d="M14.8896 17.1098L12.2803 17.5104L13.7915 16.0122L14.8896 17.1098Z" fill="white"/>
<path d="M12.2804 17.755C12.237 17.7562 12.1943 17.7445 12.1575 17.7215C12.1207 17.6985 12.0915 17.6652 12.0736 17.6257C12.0461 17.5883 12.0312 17.5431 12.0312 17.4966C12.0312 17.4502 12.0461 17.405 12.0736 17.3675L13.5717 15.8563C13.6172 15.8136 13.6772 15.7898 13.7396 15.7898C13.8019 15.7898 13.8619 15.8136 13.9074 15.8563L15.0059 16.9539C15.0279 16.9887 15.0395 17.029 15.0395 17.0701C15.0395 17.1113 15.0279 17.1516 15.0059 17.1864C14.9952 17.2288 14.9724 17.2672 14.9403 17.297C14.9083 17.3268 14.8683 17.3468 14.8253 17.3545L12.2421 17.755H12.2804ZM13.7916 16.347L12.9522 17.1864L14.399 16.967L13.7916 16.347Z" fill="#FF6C37"/>
<path d="M14.8894 17.1088L13.0681 17.3413C13.0194 17.3524 12.9684 17.3475 12.9227 17.3273C12.877 17.3071 12.839 17.2727 12.8144 17.2292C12.7897 17.1857 12.7798 17.1354 12.786 17.0858C12.7922 17.0362 12.8142 16.9899 12.8487 16.9538L13.7918 16.0107L14.8894 17.1088Z" fill="white"/>
<path d="M13.017 17.5873C12.9326 17.5865 12.8499 17.5633 12.7773 17.5202C12.7047 17.4771 12.6449 17.4155 12.6038 17.3417C12.5545 17.2533 12.5354 17.1512 12.5494 17.0509C12.5634 16.9507 12.6097 16.8577 12.6813 16.7861L13.6244 15.8431C13.6699 15.8004 13.7299 15.7766 13.7922 15.7766C13.8546 15.7766 13.9146 15.8004 13.9601 15.8431L15.0581 16.9411C15.0908 16.9721 15.1138 17.0118 15.1243 17.0556C15.1348 17.0993 15.1324 17.1452 15.1174 17.1876C15.1024 17.23 15.0754 17.2671 15.0397 17.2945C15.004 17.3218 14.9611 17.3382 14.9162 17.3417L13.1081 17.5742L13.017 17.5873ZM13.017 17.1092L14.3863 16.9411L13.7794 16.3342L13.0044 17.1092H13.017ZM24.2544 7.77046C24.2301 7.7297 24.1916 7.69929 24.1464 7.68501C24.1011 7.67072 24.0522 7.67355 24.0088 7.69296C23.9875 7.7038 23.9685 7.71881 23.953 7.73711C23.9375 7.75542 23.9259 7.77664 23.9187 7.79952C23.9044 7.8457 23.9089 7.8957 23.9313 7.93854C24.0219 8.1289 23.9967 8.35413 23.8669 8.51979C23.8508 8.53575 23.8382 8.55488 23.8298 8.57598C23.8215 8.59707 23.8176 8.61967 23.8185 8.64234C23.8189 8.68776 23.8362 8.73141 23.8669 8.76488C23.9001 8.77797 23.9369 8.77797 23.9701 8.76488C24.0002 8.77245 24.0317 8.77161 24.0614 8.76247C24.091 8.75333 24.1176 8.73624 24.1382 8.71306C24.2445 8.58283 24.3119 8.42518 24.3324 8.2583C24.353 8.09142 24.326 7.92213 24.2544 7.76998V7.77046Z" fill="#FF6C37"/>
</svg>
