<svg width="28" height="34" viewBox="0 0 28 34" fill="none" xmlns="http://www.w3.org/2000/svg">
<path fill-rule="evenodd" clip-rule="evenodd" d="M0.265828 23.3374C-0.0836366 22.7918 -0.088916 22.0969 0.252218 21.546L13.0965 0.808257C13.811 -0.345169 15.536 -0.244317 16.1083 0.984321L27.8422 26.178C28.2775 27.1128 27.7764 28.2127 26.7802 28.5085L8.52722 33.9285C7.79283 34.1465 7.00153 33.8543 6.59102 33.2133L0.265828 23.3374ZM14.5785 6.87181C14.7023 6.26174 15.5468 6.17378 15.7962 6.74495L23.8901 25.2825C24.0424 25.6316 23.8528 26.0341 23.4847 26.1428L10.8733 29.869C10.4098 30.0059 9.96571 29.6051 10.061 29.1355L14.5785 6.87181Z" fill="white"/>
</svg>
