<svg width="39" height="15" viewBox="0 0 39 15" fill="none" xmlns="http://www.w3.org/2000/svg">
<path d="M28.7031 12.3133L29.8298 9.40292H33.0829L31.539 4.98796L33.4698 0L39.0002 14.9999H34.9217L33.9766 12.3133H28.7031Z" fill="white"/>
<path d="M25.2241 15L31.1443 0.000244141H27.2194L23.1694 9.69331L20.2896 0.000244141H17.2726L14.1805 9.69331L11.9997 5.27642L10.0264 11.4871L12.03 15H15.8926L18.6869 6.30731L21.351 15H25.2241Z" fill="#5A0FC8"/>
<path d="M3.72561 9.85077H6.14317C6.87559 9.85077 7.52772 9.76723 8.09952 9.60012L8.72491 7.6326L10.4722 2.13315C10.3391 1.91755 10.1871 1.71374 10.0162 1.52166C9.11892 0.50722 7.80629 0 6.07809 0H0V14.9999H3.72561V9.85077ZM6.92579 3.45094C7.27612 3.81115 7.45139 4.29338 7.45139 4.89741C7.45139 5.50611 7.29723 5.98874 6.98919 6.34554C6.65117 6.74206 6.02918 6.94012 5.1227 6.94012H3.72561V2.91042H5.13296C5.9777 2.91042 6.57523 3.0905 6.92579 3.45094Z" fill="white"/>
</svg>
