<svg width="32" height="33" viewBox="0 0 32 33" fill="none" xmlns="http://www.w3.org/2000/svg">
<path d="M18.7001 32.4517C17.8604 33.5134 16.1579 32.9317 16.1376 31.5761L15.8418 11.749H29.1203C31.5254 11.749 32.8668 14.5381 31.3713 16.4292L18.7001 32.4517Z" fill="url(#paint0_linear_187_366)"/>
<path d="M18.7001 32.4517C17.8604 33.5134 16.1579 32.9317 16.1376 31.5761L15.8418 11.749H29.1203C31.5254 11.749 32.8668 14.5381 31.3713 16.4292L18.7001 32.4517Z" fill="url(#paint1_linear_187_366)" fill-opacity="0.2"/>
<path d="M13.2999 0.548322C14.1396 -0.513445 15.8421 0.0683265 15.8623 1.42393L15.992 21.251H2.87962C0.474449 21.251 -0.86696 18.4619 0.628648 16.5708L13.2999 0.548322Z" fill="#3ECF8E"/>
<defs>
<linearGradient id="paint0_linear_187_366" x1="15.8418" y1="16.1452" x2="27.6574" y2="21.0809" gradientUnits="userSpaceOnUse">
<stop stop-color="#249361"/>
<stop offset="1" stop-color="#3ECF8E"/>
</linearGradient>
<linearGradient id="paint1_linear_187_366" x1="10.6096" y1="8.95274" x2="16.0253" y2="19.1069" gradientUnits="userSpaceOnUse">
<stop/>
<stop offset="1" stop-opacity="0"/>
</linearGradient>
</defs>
</svg>
