<svg width="31" height="31" viewBox="0 0 31 31" fill="none" xmlns="http://www.w3.org/2000/svg">
<path d="M0 0H31V31H0V0Z" fill="#017ACB"/>
<path d="M14.8847 11.4797H16.3717V14.0469H12.3514V25.4684L12.2448 25.4975C12.0995 25.5362 10.1862 25.5362 9.7745 25.4926L9.44512 25.4636V14.0469H5.4248V11.4797L6.69871 11.4651C7.39621 11.4555 9.1884 11.4555 10.6803 11.4651C12.1722 11.4748 14.0612 11.4797 14.8847 11.4797ZM26.2336 24.2575C25.6427 24.8823 25.0081 25.2311 23.9522 25.5169C23.492 25.6428 23.4145 25.6476 22.378 25.6428C21.3414 25.638 21.259 25.638 20.7553 25.5072C19.4523 25.173 18.4012 24.5191 17.6844 23.5939C17.4809 23.3323 17.1467 22.7898 17.1467 22.722C17.1467 22.7026 17.1951 22.6591 17.2581 22.63C17.3211 22.6009 17.4519 22.5186 17.5584 22.4556C17.665 22.3926 17.8587 22.2764 17.9895 22.2086C18.1203 22.1408 18.4981 21.918 18.8275 21.7194C19.1569 21.5208 19.4572 21.3609 19.4911 21.3609C19.525 21.3609 19.588 21.4287 19.6364 21.5111C19.927 22.0003 20.6051 22.6251 21.0847 22.8383C21.3801 22.9642 22.0341 23.1047 22.3489 23.1047C22.6395 23.1047 23.1723 22.9787 23.4581 22.848C23.7633 22.7075 23.9183 22.567 24.1023 22.2861C24.2283 22.0875 24.2428 22.0342 24.238 21.6564C24.238 21.3076 24.2186 21.2108 24.1217 21.0509C23.8505 20.6053 23.4823 20.3728 21.9905 19.7141C20.4501 19.0311 19.7575 18.6242 19.1956 18.0769C18.779 17.67 18.6967 17.5586 18.4351 17.05C18.0961 16.3961 18.0525 16.183 18.0476 15.2094C18.0428 14.5264 18.0573 14.3036 18.13 14.0711C18.2317 13.7223 18.5611 13.0491 18.7112 12.8795C19.0212 12.5162 19.1326 12.4048 19.3506 12.2256C20.0094 11.6831 21.0362 11.3247 22.0195 11.2908C22.1309 11.2908 22.4991 11.3101 22.843 11.3344C23.8311 11.4167 24.5044 11.6589 25.1534 12.1772C25.6427 12.5647 26.3837 13.4753 26.3111 13.5964C26.2627 13.6691 24.33 14.9575 24.2041 14.9962C24.1266 15.0205 24.0733 14.9914 23.9667 14.8655C23.308 14.0759 23.0416 13.9064 22.4022 13.8676C21.9469 13.8386 21.7047 13.8919 21.3995 14.0953C21.0798 14.3084 20.9248 14.633 20.9248 15.0834C20.9297 15.7422 21.1816 16.0522 22.1116 16.5123C22.7122 16.8078 23.2256 17.05 23.2644 17.05C23.3225 17.05 24.5673 17.67 24.8919 17.8637C26.4031 18.7501 27.0183 19.6608 27.1781 21.2301C27.2944 22.412 26.9602 23.4922 26.2336 24.2575Z" fill="white"/>
</svg>
